<mxfile host="app.diagrams.net" modified="2024-01-30T15:09:29.373Z" agent="Mozilla/5.0 (Windows NT 10.0; Win64; x64) AppleWebKit/537.36 (KHTML, like Gecko) Chrome/120.0.0.0 Safari/537.36" etag="bf1_dXKaS1rL7fhziNqo" version="23.0.2" type="github">
  <diagram name="Page-1" id="SLWHONGWkRjtSyT5AdgG">
    <mxGraphModel dx="871" dy="1560" grid="1" gridSize="10" guides="1" tooltips="1" connect="1" arrows="1" fold="1" page="1" pageScale="1" pageWidth="850" pageHeight="1100" math="0" shadow="0">
      <root>
        <mxCell id="0" />
        <mxCell id="1" parent="0" />
        <mxCell id="m3_3QXX9qVRo3jiGdw5e-72" value="" style="group" parent="1" vertex="1" connectable="0">
          <mxGeometry x="30" y="30" width="800" height="700" as="geometry" />
        </mxCell>
        <mxCell id="m3_3QXX9qVRo3jiGdw5e-35" style="edgeStyle=orthogonalEdgeStyle;rounded=0;orthogonalLoop=1;jettySize=auto;html=1;exitX=0.5;exitY=0;exitDx=0;exitDy=0;exitPerimeter=0;" parent="m3_3QXX9qVRo3jiGdw5e-72" edge="1">
          <mxGeometry relative="1" as="geometry">
            <mxPoint x="335" y="621" as="sourcePoint" />
            <mxPoint x="335" y="561" as="targetPoint" />
          </mxGeometry>
        </mxCell>
        <mxCell id="m3_3QXX9qVRo3jiGdw5e-49" value="" style="edgeStyle=orthogonalEdgeStyle;rounded=0;orthogonalLoop=1;jettySize=auto;html=1;" parent="m3_3QXX9qVRo3jiGdw5e-72" edge="1">
          <mxGeometry relative="1" as="geometry">
            <mxPoint x="439.33000000000004" y="392" as="sourcePoint" />
            <mxPoint x="439.33000000000004" y="332" as="targetPoint" />
          </mxGeometry>
        </mxCell>
        <mxCell id="m3_3QXX9qVRo3jiGdw5e-1" value="&lt;b&gt;&lt;font color=&quot;#99004d&quot;&gt;Region - eu-central-1 - Frankfurt&lt;/font&gt;&lt;/b&gt;" style="sketch=0;outlineConnect=0;gradientColor=none;html=1;whiteSpace=wrap;fontSize=12;fontStyle=0;shape=mxgraph.aws4.group;grIcon=mxgraph.aws4.group_region;strokeColor=#e41b80;fillColor=none;verticalAlign=top;align=left;spacingLeft=30;fontColor=#879196;dashed=1;" parent="m3_3QXX9qVRo3jiGdw5e-72" vertex="1">
          <mxGeometry width="800" height="700" as="geometry" />
        </mxCell>
        <mxCell id="m3_3QXX9qVRo3jiGdw5e-3" value="&lt;font size=&quot;1&quot; style=&quot;&quot;&gt;&lt;b style=&quot;background-color: rgb(255, 255, 255);&quot;&gt;Subnet_Public_192.168.1.0&lt;/b&gt;&lt;/font&gt;" style="sketch=0;outlineConnect=0;gradientColor=none;html=1;whiteSpace=wrap;fontSize=12;fontStyle=0;shape=mxgraph.aws4.group;grIcon=mxgraph.aws4.group_subnet;strokeColor=#CD2334;fillColor=none;verticalAlign=top;align=left;spacingLeft=30;fontColor=#FF0080;dashed=0;" parent="m3_3QXX9qVRo3jiGdw5e-72" vertex="1">
          <mxGeometry x="130" y="90" width="180" height="130" as="geometry" />
        </mxCell>
        <mxCell id="m3_3QXX9qVRo3jiGdw5e-8" value="&lt;font size=&quot;1&quot; style=&quot;&quot;&gt;&lt;b style=&quot;background-color: rgb(255, 255, 255);&quot;&gt;Subnet_Private_192.168.2.0&lt;/b&gt;&lt;/font&gt;" style="sketch=0;outlineConnect=0;gradientColor=none;html=1;whiteSpace=wrap;fontSize=12;fontStyle=0;shape=mxgraph.aws4.group;grIcon=mxgraph.aws4.group_subnet;strokeColor=#CD2334;fillColor=none;verticalAlign=top;align=left;spacingLeft=30;fontColor=#FF0080;dashed=0;" parent="m3_3QXX9qVRo3jiGdw5e-72" vertex="1">
          <mxGeometry x="350" y="90" width="180" height="130" as="geometry" />
        </mxCell>
        <mxCell id="m3_3QXX9qVRo3jiGdw5e-9" value="&lt;font size=&quot;1&quot; style=&quot;&quot;&gt;&lt;b style=&quot;background-color: rgb(255, 255, 255);&quot;&gt;Subnet_Mgmt_192.168.3.0&lt;/b&gt;&lt;/font&gt;" style="sketch=0;outlineConnect=0;gradientColor=none;html=1;whiteSpace=wrap;fontSize=12;fontStyle=0;shape=mxgraph.aws4.group;grIcon=mxgraph.aws4.group_subnet;strokeColor=#CD2334;fillColor=none;verticalAlign=top;align=left;spacingLeft=30;fontColor=#FF0080;dashed=0;" parent="m3_3QXX9qVRo3jiGdw5e-72" vertex="1">
          <mxGeometry x="570" y="90" width="180" height="130" as="geometry" />
        </mxCell>
        <mxCell id="m3_3QXX9qVRo3jiGdw5e-20" value="&lt;font style=&quot;font-size: 12px;&quot;&gt;&lt;b style=&quot;font-size: 12px;&quot;&gt;Security&lt;br&gt;&amp;nbsp;Group&lt;/b&gt;&lt;/font&gt;" style="image;sketch=0;aspect=fixed;html=1;points=[];align=center;fontSize=12;image=img/lib/mscae/Network_Security_Groups_Classic.svg;" parent="m3_3QXX9qVRo3jiGdw5e-72" vertex="1">
          <mxGeometry x="255" y="126.47999999999999" width="38.3" height="51.76" as="geometry" />
        </mxCell>
        <mxCell id="m3_3QXX9qVRo3jiGdw5e-23" value="Internet Gateway" style="outlineConnect=0;dashed=0;verticalLabelPosition=bottom;verticalAlign=top;align=center;html=1;shape=mxgraph.aws3.internet_gateway;fillColor=#F58534;gradientColor=none;fontStyle=1;fontSize=10;" parent="m3_3QXX9qVRo3jiGdw5e-72" vertex="1">
          <mxGeometry x="305" y="600" width="60" height="60" as="geometry" />
        </mxCell>
        <mxCell id="m3_3QXX9qVRo3jiGdw5e-24" value="Route&lt;br&gt;" style="outlineConnect=0;dashed=0;verticalLabelPosition=bottom;verticalAlign=top;align=center;html=1;shape=mxgraph.aws3.router;fillColor=#F58534;gradientColor=none;" parent="m3_3QXX9qVRo3jiGdw5e-72" vertex="1">
          <mxGeometry x="305" y="480" width="60" height="60" as="geometry" />
        </mxCell>
        <mxCell id="m3_3QXX9qVRo3jiGdw5e-25" value="Route Table" style="sketch=0;aspect=fixed;pointerEvents=1;shadow=0;dashed=0;html=1;strokeColor=none;labelPosition=center;verticalLabelPosition=bottom;verticalAlign=top;align=center;fillColor=#00188D;shape=mxgraph.mscae.enterprise.router" parent="m3_3QXX9qVRo3jiGdw5e-72" vertex="1">
          <mxGeometry x="197.5" y="390" width="60" height="46.8" as="geometry" />
        </mxCell>
        <mxCell id="m3_3QXX9qVRo3jiGdw5e-28" value="Route Table" style="sketch=0;aspect=fixed;pointerEvents=1;shadow=0;dashed=0;html=1;strokeColor=none;labelPosition=center;verticalLabelPosition=bottom;verticalAlign=top;align=center;fillColor=#00188D;shape=mxgraph.mscae.enterprise.router" parent="m3_3QXX9qVRo3jiGdw5e-72" vertex="1">
          <mxGeometry x="410" y="390" width="64.1" height="50" as="geometry" />
        </mxCell>
        <mxCell id="m3_3QXX9qVRo3jiGdw5e-29" value="Network ACL" style="outlineConnect=0;dashed=0;verticalLabelPosition=bottom;verticalAlign=top;align=center;html=1;shape=mxgraph.aws3.network_access_controllist;fillColor=#F58534;gradientColor=none;fontSize=10;fontStyle=1" parent="m3_3QXX9qVRo3jiGdw5e-72" vertex="1">
          <mxGeometry x="200" y="280" width="55" height="50" as="geometry" />
        </mxCell>
        <mxCell id="m3_3QXX9qVRo3jiGdw5e-42" value="" style="edgeStyle=orthogonalEdgeStyle;rounded=0;orthogonalLoop=1;jettySize=auto;html=1;" parent="m3_3QXX9qVRo3jiGdw5e-72" source="m3_3QXX9qVRo3jiGdw5e-25" target="m3_3QXX9qVRo3jiGdw5e-29" edge="1">
          <mxGeometry relative="1" as="geometry" />
        </mxCell>
        <mxCell id="m3_3QXX9qVRo3jiGdw5e-34" value="Network ACL" style="outlineConnect=0;dashed=0;verticalLabelPosition=bottom;verticalAlign=top;align=center;html=1;shape=mxgraph.aws3.network_access_controllist;fillColor=#F58534;gradientColor=none;fontSize=10;fontStyle=1" parent="m3_3QXX9qVRo3jiGdw5e-72" vertex="1">
          <mxGeometry x="410" y="280" width="55" height="50" as="geometry" />
        </mxCell>
        <mxCell id="m3_3QXX9qVRo3jiGdw5e-50" value="" style="edgeStyle=orthogonalEdgeStyle;rounded=0;orthogonalLoop=1;jettySize=auto;html=1;" parent="m3_3QXX9qVRo3jiGdw5e-72" edge="1">
          <mxGeometry relative="1" as="geometry">
            <mxPoint x="226.83000000000004" y="280" as="sourcePoint" />
            <mxPoint x="226.83000000000004" y="220" as="targetPoint" />
          </mxGeometry>
        </mxCell>
        <mxCell id="m3_3QXX9qVRo3jiGdw5e-51" value="" style="edgeStyle=orthogonalEdgeStyle;rounded=0;orthogonalLoop=1;jettySize=auto;html=1;" parent="m3_3QXX9qVRo3jiGdw5e-72" edge="1">
          <mxGeometry relative="1" as="geometry">
            <mxPoint x="440.00000000000006" y="280" as="sourcePoint" />
            <mxPoint x="440.00000000000006" y="220" as="targetPoint" />
          </mxGeometry>
        </mxCell>
        <mxCell id="m3_3QXX9qVRo3jiGdw5e-55" value="" style="group" parent="m3_3QXX9qVRo3jiGdw5e-72" vertex="1" connectable="0">
          <mxGeometry x="226.82999999999998" y="460" width="25.170000000000016" height="60" as="geometry" />
        </mxCell>
        <mxCell id="m3_3QXX9qVRo3jiGdw5e-52" value="" style="edgeStyle=orthogonalEdgeStyle;rounded=0;orthogonalLoop=1;jettySize=auto;html=1;" parent="m3_3QXX9qVRo3jiGdw5e-55" edge="1">
          <mxGeometry relative="1" as="geometry">
            <mxPoint y="60" as="sourcePoint" />
            <mxPoint as="targetPoint" />
          </mxGeometry>
        </mxCell>
        <mxCell id="m3_3QXX9qVRo3jiGdw5e-54" value="" style="endArrow=none;html=1;rounded=0;entryX=0.417;entryY=0.667;entryDx=0;entryDy=0;entryPerimeter=0;" parent="m3_3QXX9qVRo3jiGdw5e-55" edge="1">
          <mxGeometry width="50" height="50" relative="1" as="geometry">
            <mxPoint x="-0.8299999999999841" y="60" as="sourcePoint" />
            <mxPoint x="75.19000000000023" y="60.01999999999998" as="targetPoint" />
            <Array as="points">
              <mxPoint x="25.170000000000016" y="60" />
            </Array>
          </mxGeometry>
        </mxCell>
        <mxCell id="m3_3QXX9qVRo3jiGdw5e-60" value="" style="group" parent="m3_3QXX9qVRo3jiGdw5e-72" vertex="1" connectable="0">
          <mxGeometry x="391" y="460" width="76.99999999999994" height="60" as="geometry" />
        </mxCell>
        <mxCell id="m3_3QXX9qVRo3jiGdw5e-56" value="" style="group;rotation=180;" parent="m3_3QXX9qVRo3jiGdw5e-60" vertex="1" connectable="0">
          <mxGeometry x="51.829999999999984" width="25.170000000000016" height="60" as="geometry" />
        </mxCell>
        <mxCell id="m3_3QXX9qVRo3jiGdw5e-57" value="" style="edgeStyle=orthogonalEdgeStyle;rounded=0;orthogonalLoop=1;jettySize=auto;html=1;" parent="m3_3QXX9qVRo3jiGdw5e-56" edge="1">
          <mxGeometry relative="1" as="geometry">
            <mxPoint y="60" as="sourcePoint" />
            <mxPoint as="targetPoint" />
          </mxGeometry>
        </mxCell>
        <mxCell id="m3_3QXX9qVRo3jiGdw5e-59" value="" style="endArrow=none;html=1;rounded=0;entryX=0.417;entryY=0.667;entryDx=0;entryDy=0;entryPerimeter=0;" parent="m3_3QXX9qVRo3jiGdw5e-60" edge="1">
          <mxGeometry width="50" height="50" relative="1" as="geometry">
            <mxPoint x="-26" y="59" as="sourcePoint" />
            <mxPoint x="50.02000000000021" y="59.01999999999998" as="targetPoint" />
            <Array as="points">
              <mxPoint y="59" />
            </Array>
          </mxGeometry>
        </mxCell>
        <mxCell id="m3_3QXX9qVRo3jiGdw5e-61" value="Web Server" style="image;aspect=fixed;perimeter=ellipsePerimeter;html=1;align=center;shadow=0;dashed=0;spacingTop=3;image=img/lib/active_directory/web_server.svg;fontStyle=1" parent="m3_3QXX9qVRo3jiGdw5e-72" vertex="1">
          <mxGeometry x="160" y="128.24" width="40" height="50" as="geometry" />
        </mxCell>
        <mxCell id="m3_3QXX9qVRo3jiGdw5e-64" value="Web Server" style="image;aspect=fixed;perimeter=ellipsePerimeter;html=1;align=center;shadow=0;dashed=0;spacingTop=3;image=img/lib/active_directory/web_server.svg;fontStyle=1" parent="m3_3QXX9qVRo3jiGdw5e-72" vertex="1">
          <mxGeometry x="600" y="128.24" width="40" height="50" as="geometry" />
        </mxCell>
        <mxCell id="m3_3QXX9qVRo3jiGdw5e-66" value="&lt;font style=&quot;font-size: 12px;&quot;&gt;&lt;b style=&quot;font-size: 12px;&quot;&gt;Security&lt;br&gt;&amp;nbsp;Group&lt;/b&gt;&lt;/font&gt;" style="image;sketch=0;aspect=fixed;html=1;points=[];align=center;fontSize=12;image=img/lib/mscae/Network_Security_Groups_Classic.svg;" parent="m3_3QXX9qVRo3jiGdw5e-72" vertex="1">
          <mxGeometry x="690" y="126.47999999999999" width="38.3" height="51.76" as="geometry" />
        </mxCell>
        <mxCell id="m3_3QXX9qVRo3jiGdw5e-67" value="&lt;font style=&quot;font-size: 12px;&quot;&gt;&lt;b style=&quot;font-size: 12px;&quot;&gt;Security&lt;br&gt;&amp;nbsp;Group&lt;/b&gt;&lt;/font&gt;" style="image;sketch=0;aspect=fixed;html=1;points=[];align=center;fontSize=12;image=img/lib/mscae/Network_Security_Groups_Classic.svg;" parent="m3_3QXX9qVRo3jiGdw5e-72" vertex="1">
          <mxGeometry x="468" y="128.23999999999998" width="38.3" height="51.76" as="geometry" />
        </mxCell>
        <mxCell id="m3_3QXX9qVRo3jiGdw5e-69" value="&lt;b&gt;DataBase&lt;/b&gt;" style="image;aspect=fixed;perimeter=ellipsePerimeter;html=1;align=center;shadow=0;dashed=0;spacingTop=3;image=img/lib/active_directory/database_server.svg;" parent="m3_3QXX9qVRo3jiGdw5e-72" vertex="1">
          <mxGeometry x="375" y="130" width="41" height="50" as="geometry" />
        </mxCell>
        <mxCell id="m3_3QXX9qVRo3jiGdw5e-71" value="&lt;font color=&quot;#990099&quot;&gt;VPC&lt;/font&gt;" style="points=[[0,0],[0.25,0],[0.5,0],[0.75,0],[1,0],[1,0.25],[1,0.5],[1,0.75],[1,1],[0.75,1],[0.5,1],[0.25,1],[0,1],[0,0.75],[0,0.5],[0,0.25]];outlineConnect=0;gradientColor=none;html=1;whiteSpace=wrap;fontSize=12;fontStyle=0;container=1;pointerEvents=0;collapsible=0;recursiveResize=0;shape=mxgraph.aws4.group;grIcon=mxgraph.aws4.group_vpc2;strokeColor=#8C4FFF;fillColor=none;verticalAlign=top;align=left;spacingLeft=30;fontColor=#AAB7B8;dashed=1;dashPattern=1 1;" parent="m3_3QXX9qVRo3jiGdw5e-72" vertex="1">
          <mxGeometry x="30" y="48.239999999999995" width="750" height="521.76" as="geometry" />
        </mxCell>
        <mxCell id="el3TyQa8seq4Zc_YMm_w-47" value="&lt;b&gt;&lt;font style=&quot;font-size: 19px;&quot;&gt;Criando uma VPC + 3 subnets&amp;nbsp;&lt;/font&gt;&lt;/b&gt;" style="text;strokeColor=none;align=center;fillColor=none;html=1;verticalAlign=middle;whiteSpace=wrap;rounded=0;" vertex="1" parent="1">
          <mxGeometry x="50" y="-10" width="760" height="30" as="geometry" />
        </mxCell>
      </root>
    </mxGraphModel>
  </diagram>
</mxfile>
